<svg xmlns="http://www.w3.org/2000/svg" width="204.073" height="204.073" viewBox="0 0 204.073 204.073">
  <circle cx="102.036" cy="102.036" r="102.036" fill="#ff0045"/>
  <path d="M70.649,143.939v-16.5A208.394,208.394,0,0,0,100.37,97.946q11.673-14.541,11.673-23.132a12.677,12.677,0,0,0-4.3-9.875,15.93,15.93,0,0,0-11.059-3.855q-10.754,0-22.726,8.049L72.272,52.166Q88.911,45.6,102.033,45.6q14.066,0,22.522,7.3t8.456,19.821q0,22.929-37.268,55.6,0,.137,10.01.135,16.706,0,29.828-.135v15.624Z" fill="#fff"/>
  <path d="M31.239,72.948V68.863h2.6q-.054-.784-.055-1.948a18.438,18.438,0,0,1,.11-2.272H31.239V60.558h3.39a16.868,16.868,0,0,1,6.917-9.741,22.159,22.159,0,0,1,12.663-3.463A22.763,22.763,0,0,1,62.3,48.567L59.457,54.31a10.424,10.424,0,0,0-4.41-.652q-8.793,0-11.714,6.9H56.427l-2.056,4.085H42.305q-.137,1.7-.136,2.056t.136,2.164h10.01l-2.056,4.085H43.468a11.853,11.853,0,0,0,4.68,5.324A13.223,13.223,0,0,0,55.21,80.2a21.7,21.7,0,0,0,5.708-.727V86.2a37.476,37.476,0,0,1-6.006.435q-8.17,0-13.462-3.532a16.464,16.464,0,0,1-6.93-10.159Z" fill="#fff"/>
  <g>
    <path d="M66.768,164.711h3.223l.07,2.011a4.061,4.061,0,0,1,3.868-2.2,4.517,4.517,0,0,1,3.7,1.711,7.1,7.1,0,0,1,1.383,4.595,7.507,7.507,0,0,1-1.394,4.8,4.558,4.558,0,0,1-3.763,1.752,4.136,4.136,0,0,1-3.82-1.964,10.141,10.141,0,0,1,.07,1.305v5.557H66.9V168.355Q66.9,167.02,66.768,164.711Zm3.34,6.34a4.452,4.452,0,0,0,.762,2.771,2.453,2.453,0,0,0,2.051.99,2.34,2.34,0,0,0,1.992-1.071,4.571,4.571,0,0,0,.762-2.714,4.88,4.88,0,0,0-.7-2.818,2.252,2.252,0,0,0-1.962-1,2.509,2.509,0,0,0-2.145,1.036A4.646,4.646,0,0,0,70.108,171.051Z" fill="#fff"/>
    <path d="M80.491,177.191l5.93-16.8h2.66l-5.883,16.8Z" fill="#fff"/>
    <path d="M91.261,164.711h3.105l.07,1.916a3.913,3.913,0,0,1,1.613-1.567,4.791,4.791,0,0,1,2.254-.537,3.471,3.471,0,0,1,3.469,2.222,4.269,4.269,0,0,1,3.938-2.222,5.081,5.081,0,0,1,1.682.246,3,3,0,0,1,1.236.85,3.869,3.869,0,0,1,.8,1.682,11.5,11.5,0,0,1,.263,2.672v7.218h-3.211v-6.033q0-.829-.041-1.4a6.729,6.729,0,0,0-.164-1.088,2.34,2.34,0,0,0-.34-.818,1.473,1.473,0,0,0-.562-.474,1.906,1.906,0,0,0-.838-.169,2.113,2.113,0,0,0-1.061.257,1.988,1.988,0,0,0-.7.649,3.269,3.269,0,0,0-.4.976,7.088,7.088,0,0,0-.193,1.128q-.048.544-.047,1.222v5.752H98.925v-6.4a6.809,6.809,0,0,0-.4-2.823,1.531,1.531,0,0,0-1.5-.766,2.282,2.282,0,0,0-.656.094,1.992,1.992,0,0,0-.65.35,2.364,2.364,0,0,0-.58.666,3.814,3.814,0,0,0-.405,1.094,6.98,6.98,0,0,0-.158,1.561v6.219H91.366v-9.433Q91.366,166.808,91.261,164.711Z" fill="#fff"/>
    <path d="M112.964,164.711h3.047l.07,2.011a5.2,5.2,0,0,1,5.95-1.912,3.3,3.3,0,0,1,1.215.78,3.761,3.761,0,0,1,.761,1.224,6.587,6.587,0,0,1,.4,1.536,13.314,13.314,0,0,1,.11,1.81v7.031h-3.21v-6.255a6.156,6.156,0,0,0-.493-2.835,1.786,1.786,0,0,0-1.711-.894,3.592,3.592,0,0,0-.8.082,2.322,2.322,0,0,0-1.407,1.028,3.894,3.894,0,0,0-.439,1.187,8.158,8.158,0,0,0-.17,1.771v5.916h-3.211v-9.433Q113.081,166.246,112.964,164.711Z" fill="#fff"/>
    <path d="M127.061,170.724a6.876,6.876,0,0,1,1.407-4.516,4.584,4.584,0,0,1,3.726-1.708,4.5,4.5,0,0,1,2.242.539,4.557,4.557,0,0,1,1.658,1.734,1.3,1.3,0,0,1-.042-.228q-.031-.217-.058-.627c-.018-.274-.026-.547-.026-.82v-6.047h3.211V173.57q0,1.629.093,3.621h-3.093V175.06a4.075,4.075,0,0,1-1.579,1.792,4.716,4.716,0,0,1-2.335.527,4.6,4.6,0,0,1-3.838-1.743A7.8,7.8,0,0,1,127.061,170.724Zm3.34.163a4.819,4.819,0,0,0,.762,2.862,2.385,2.385,0,0,0,2.039,1.063,2.425,2.425,0,0,0,2.022-1.057,4.417,4.417,0,0,0,.791-2.716,4.508,4.508,0,0,0-.8-2.8,2.539,2.539,0,0,0-2.127-1.057,2.311,2.311,0,0,0-1.957.981A4.487,4.487,0,0,0,130.4,170.887Z" fill="#fff"/>
  </g>
</svg>
